<svg width="330" height="29" fill="none" xmlns="http://www.w3.org/2000/svg"><path d="M83.416 24.408c3.936 0 6.072-2.496 6.312-6.096L86.8 17.76c-.144 2.736-1.248 4.2-3.264 4.2-2.256 0-3.36-1.992-3.36-5.712v-1.704C80.176 10.8 81.232 9 83.536 9c1.992 0 3.12 1.488 3.264 4.176l2.952-.456c-.312-4.2-2.544-6.168-6.192-6.168-4.272 0-6.408 3.072-6.408 8.04v1.776c0 4.968 2.064 8.04 6.264 8.04zm14.907-.12c3.408 0 5.832-2.352 5.832-6.288 0-3.936-2.424-6.288-5.832-6.288S92.49 14.064 92.49 18c0 3.888 2.424 6.288 5.832 6.288zm0-2.208c-1.824 0-2.904-1.464-2.904-4.08s1.08-4.08 2.904-4.08c1.824 0 2.904 1.488 2.904 4.08 0 2.616-1.08 4.08-2.904 4.08zM115.39 6.6v7.128c-.528-1.152-1.68-2.016-3.288-2.016-3.144 0-5.136 2.52-5.136 6.288 0 3.816 1.92 6.288 4.848 6.288 1.992 0 3.12-1.032 3.744-2.472V24h2.664V6.6h-2.832zm.072 11.04v.72c0 2.256-1.08 3.72-2.808 3.72-1.704 0-2.736-1.584-2.736-4.104s.984-4.056 2.808-4.056c1.68 0 2.736 1.488 2.736 3.72zm17.954.048c0-3.432-1.656-5.976-5.376-5.976-3.48 0-5.688 2.424-5.688 6.168 0 3.888 1.968 6.408 5.904 6.408 2.304 0 4.08-1.08 5.088-3.048l-2.256-1.104c-.576 1.08-1.44 1.896-2.832 1.896-1.896 0-3.072-1.44-3.072-3.384h8.184c.024-.312.048-.648.048-.96zm-2.856-.864h-5.4c0-1.632.96-3.144 2.808-3.144 1.8 0 2.616 1.368 2.592 3.144zm12.507 7.584c4.08 0 6.096-2.496 6.096-5.136 0-3.168-2.064-4.272-4.44-4.92l-2.256-.624c-1.392-.408-2.352-1.224-2.352-2.496 0-1.104.648-2.28 2.76-2.28 1.608 0 3.144.768 3.672 3.12l2.496-1.296c-.648-2.952-3.048-4.224-6.144-4.224-3.432 0-5.76 2.184-5.76 5.016 0 2.592 1.752 4.08 4.272 4.752l2.28.624c1.32.36 2.472.84 2.472 2.712 0 1.8-1.632 2.304-3 2.304-2.328 0-3.48-1.488-3.984-3.408l-2.64.912c.744 2.928 2.904 4.944 6.528 4.944zm12.219-10.08V12h-2.688v12h2.808v-6.48c0-1.464.6-3.48 2.76-3.48 1.08 0 2.112.576 2.112 2.856V24h2.832v-7.416c0-1.992-.408-3.144-1.176-3.888-.768-.744-1.824-.984-2.76-.984-1.968 0-3.264 1.152-3.888 2.616zm19.395-7.656h-3.504v3.312h3.504V6.672zM168.009 24h10.488v-2.16h-3.936V12h-6.192v2.16h3.384v7.68h-3.744V24zm17.187-12h-2.664v16.68h2.808v-6.408c.552 1.152 1.944 2.016 3.432 2.016 3.192 0 4.992-2.544 4.992-6.312 0-3.672-1.728-6.264-4.872-6.264-1.68 0-3.096 1.104-3.696 2.376V12zm.072 6.312v-.6c0-2.424 1.128-3.792 2.808-3.792 1.8 0 2.76 1.584 2.76 4.056 0 2.496-1.032 4.104-2.784 4.104-1.704 0-2.784-1.488-2.784-3.768zM200.079 12h-2.664v16.68h2.808v-6.408c.552 1.152 1.944 2.016 3.432 2.016 3.192 0 4.992-2.544 4.992-6.312 0-3.672-1.728-6.264-4.872-6.264-1.68 0-3.096 1.104-3.696 2.376V12zm.072 6.312v-.6c0-2.424 1.128-3.792 2.808-3.792 1.8 0 2.76 1.584 2.76 4.056 0 2.496-1.032 4.104-2.784 4.104-1.705 0-2.784-1.488-2.784-3.768zm22.562-.624c0-3.432-1.656-5.976-5.376-5.976-3.48 0-5.688 2.424-5.688 6.168 0 3.888 1.968 6.408 5.904 6.408 2.304 0 4.08-1.08 5.088-3.048l-2.256-1.104c-.576 1.08-1.44 1.896-2.832 1.896-1.896 0-3.072-1.44-3.072-3.384h8.184c.024-.312.048-.648.048-.96zm-2.856-.864h-5.4c0-1.632.96-3.144 2.808-3.144 1.8 0 2.616 1.368 2.592 3.144zm6.843-2.712h3.288v5.832c0 2.688 1.56 4.248 4.704 4.248 1.152 0 1.944-.168 2.568-.288v-2.376c-.624.096-1.344.168-2.112.168-1.512 0-2.328-.744-2.328-2.184v-5.4h4.44V12h-4.44V7.824l-2.832 1.128V12H226.7v2.112zm20.547 10.296c4.08 0 6.096-2.496 6.096-5.136 0-3.168-2.064-4.272-4.44-4.92l-2.256-.624c-1.392-.408-2.352-1.224-2.352-2.496 0-1.104.648-2.28 2.76-2.28 1.608 0 3.144.768 3.672 3.12l2.496-1.296c-.648-2.952-3.048-4.224-6.144-4.224-3.432 0-5.76 2.184-5.76 5.016 0 2.592 1.752 4.08 4.272 4.752l2.28.624c1.32.36 2.472.84 2.472 2.712 0 1.8-1.632 2.304-3 2.304-2.328 0-3.48-1.488-3.984-3.408l-2.64.912c.744 2.928 2.904 4.944 6.528 4.944zm20.115-6.72c0-3.432-1.656-5.976-5.376-5.976-3.48 0-5.688 2.424-5.688 6.168 0 3.888 1.968 6.408 5.904 6.408 2.304 0 4.08-1.08 5.088-3.048l-2.256-1.104c-.576 1.08-1.44 1.896-2.832 1.896-1.896 0-3.072-1.44-3.072-3.384h8.184c.024-.312.048-.648.048-.96zm-2.856-.864h-5.4c0-1.632.96-3.144 2.808-3.144 1.8 0 2.616 1.368 2.592 3.144zm17.307 3.456v-3.624c0-3.408-1.536-4.944-4.848-4.944-3.24 0-5.208 1.488-5.424 4.128h2.952c.096-1.344.912-2.088 2.328-2.088 1.464 0 2.112.792 2.112 2.52v.36l-2.352.336c-1.872.24-3.144.576-3.912 1.056-.984.624-1.488 1.56-1.488 2.76 0 2.064 1.608 3.504 3.96 3.504 1.992 0 3.288-.84 3.984-2.424.048.696.096 1.416.216 2.136h2.832c-.24-.816-.36-2.04-.36-3.72zm-2.808-1.992v.792c0 1.92-1.152 3.168-2.928 3.168-1.224 0-1.944-.648-1.944-1.728 0-1.056.768-1.608 2.616-1.896l2.256-.336zm11.042-3V12h-2.76v12h2.808v-4.344c0-3.696 2.28-5.376 4.968-5.376.96 0 1.872.144 2.352.288v-2.544c-.456-.144-1.176-.264-2.16-.264-2.472 0-4.416 1.416-5.208 3.528zm16.659 9c3.168 0 4.896-1.968 5.28-4.344l-2.712-.528c-.24 1.632-1.08 2.568-2.568 2.568-1.968 0-2.928-1.656-2.928-4.104 0-2.352.96-3.936 2.856-3.936 1.464 0 2.352.864 2.568 2.472l2.808-.432c-.36-2.712-2.376-4.272-5.232-4.272-3.936 0-5.904 2.64-5.904 6.24 0 3.552 2.04 6.336 5.832 6.336zm12.411-10.104V6.6h-2.808V24h2.808v-6.504c0-1.464.6-3.456 2.688-3.456 1.152 0 2.184.576 2.184 2.856V24h2.832v-7.416c0-1.992-.432-3.144-1.176-3.864-.816-.768-1.896-1.008-2.832-1.008-1.728 0-3.168 1.056-3.696 2.472zM53.438 24.05l-3.029-3.028 4.976-4.976-4.976-4.976 3.029-3.029 6.49 6.49c.866.866.866 2.164 0 3.03l-6.49 6.49zM7.14 24.05L.648 17.56c-.865-.865-.865-2.163 0-3.028l6.49-6.491 3.03 3.029-4.977 4.976 4.976 4.976L7.14 24.05zM44.8 25.334l-5.496-5.496a10.85 10.85 0 10-3.06 3.06l5.496 5.495a2.164 2.164 0 003.06-3.06zM23.797 13.882a6.49 6.49 0 1112.981 0 6.49 6.49 0 01-12.98 0z" fill="#fff"/></svg>